HIERARCHY
ROOT SpineBase
{
  OFFSET 0.000000 0.000000 0.000000
  CHANNELS 6 Xposition Yposition Zposition Zrotation Xrotation Yrotation
  JOINT SpineMid
  {
    OFFSET -0.000000 26.732196 0.000000
    CHANNELS 3 Zrotation Xrotation Yrotation
    JOINT SpineShoulder
    {
      OFFSET 0.120539 20.022406 -0.582734
      CHANNELS 3 Zrotation Xrotation Yrotation
      JOINT Neck
      {
        OFFSET 0.048509 6.660719 -0.451254
        CHANNELS 3 Zrotation Xrotation Yrotation
        JOINT Head
        {
          OFFSET 3.359991 11.572544 0.317501
          CHANNELS 3 Zrotation Xrotation Yrotation
          End Site
          {
            OFFSET 0 0 0
          }
        }
      }
      JOINT ShoulderLeft
      {
        OFFSET -11.252436 -2.676949 -7.097030
        CHANNELS 3 Zrotation Xrotation Yrotation
        JOINT ElbowLeft
        {
          OFFSET -6.714559 -15.602157 -2.325327
          CHANNELS 3 Zrotation Xrotation Yrotation
          JOINT WristLeft
          {
            OFFSET 18.379102 -4.604360 -8.518970
            CHANNELS 3 Zrotation Xrotation Yrotation
            JOINT HandLeft
            {
              OFFSET 4.114430 0.094917 0.188011
              CHANNELS 3 Zrotation Xrotation Yrotation
              JOINT HandTipLeft
              {
                OFFSET 8.362611 0.672304 -0.034365
                CHANNELS 3 Zrotation Xrotation Yrotation
                End Site
                {
                  OFFSET 0 0 0
                }
              }
              JOINT ThumbLeft
              {
                OFFSET 0.287089 -4.532436 6.068198
                CHANNELS 3 Zrotation Xrotation Yrotation
                End Site
                {
                  OFFSET 0 0 0
                }
              }
            }
          }
        }
      }
      JOINT ShoulderRight
      {
        OFFSET 12.224583 -3.008515 4.415788
        CHANNELS 3 Zrotation Xrotation Yrotation
        JOINT ElbowRight
        {
          OFFSET 2.870395 -20.839261 6.021607
          CHANNELS 3 Zrotation Xrotation Yrotation
          JOINT WristRight
          {
            OFFSET 0.957335 -11.717083 -13.761899
            CHANNELS 3 Zrotation Xrotation Yrotation
            JOINT HandRight
            {
              OFFSET -3.630886 -5.114020 1.634642
              CHANNELS 3 Zrotation Xrotation Yrotation
              JOINT HandTipRight
              {
                OFFSET -1.131739 -2.993630 -2.666702
                CHANNELS 3 Zrotation Xrotation Yrotation
                End Site
                {
                  OFFSET 0 0 0
                }
              }
              JOINT ThumbRight
              {
                OFFSET -1.152677 1.627648 -3.606605
                CHANNELS 3 Zrotation Xrotation Yrotation
                End Site
                {
                  OFFSET 0 0 0
                }
              }
            }
          }
        }
      }
    }
  }
  JOINT HipLeft
  {
    OFFSET -5.159509 1.317160 -5.238716
    CHANNELS 3 Zrotation Xrotation Yrotation
    JOINT KneeLeft
    {
      OFFSET -4.642171 -27.216978 -2.220488
      CHANNELS 3 Zrotation Xrotation Yrotation
      JOINT AnkleLeft
      {
        OFFSET -0.044352 -36.088744 9.202263
        CHANNELS 3 Zrotation Xrotation Yrotation
        JOINT FootLeft
        {
          OFFSET 3.453569 -2.843651 -9.757867
          CHANNELS 3 Zrotation Xrotation Yrotation
          End Site
          {
            OFFSET 0 0 0
          }
        }
      }
    }
  }
  JOINT HipRight
  {
    OFFSET 5.004862 0.395149 -0.953922
    CHANNELS 3 Zrotation Xrotation Yrotation
    JOINT KneeRight
    {
      OFFSET -1.289590 -29.752254 2.059959
      CHANNELS 3 Zrotation Xrotation Yrotation
      JOINT AnkleRight
      {
        OFFSET -4.332290 -34.081156 4.814547
        CHANNELS 3 Zrotation Xrotation Yrotation
        JOINT FootRight
        {
          OFFSET -3.229364 -6.460521 -4.044390
          CHANNELS 3 Zrotation Xrotation Yrotation
          End Site
          {
            OFFSET 0 0 0
          }
        }
      }
    }
  }
}
MOTION
Frames: 6
Frame Time: 0.033333
12.787460 69.898783 358.423620 0.000000 0.000000 -22.857871 -0.000000 0.000000 22.857871 -0.000000 0.000000 0.000000 -0.000000 0.000000 0.000000 0.000000 0.000000 0.000000 -0.000000 0.000000 0.000000 -0.000000 0.000000 0.000000 -0.000000 0.000000 0.000000 -0.000000 0.000000 0.000000 0.000000 0.000000 0.000000 0.000000 0.000000 0.000000 -0.000000 0.000000 0.000000 -0.000000 0.000000 0.000000 -0.000000 0.000000 0.000000 -0.000000 0.000000 0.000000 0.000000 0.000000 0.000000 0.000000 0.000000 0.000000 -0.000000 0.000000 22.857871 -0.000000 0.000000 0.000000 -0.000000 0.000000 0.000000 0.000000 0.000000 0.000000 -0.000000 0.000000 22.857871 -0.000000 0.000000 0.000000 -0.000000 0.000000 0.000000 0.000000 0.000000 0.000000
13.107945 69.992873 358.566722 -0.019824 0.263848 -21.201913 0.113905 -0.238819 21.202197 -0.000000 0.000000 0.000000 0.954438 0.664054 -0.225030 0.000000 0.000000 0.000000 -0.506884 -1.623429 0.767220 1.786922 2.775632 1.430492 -1.892560 -0.813773 -11.376970 1.508384 -0.329155 12.894386 0.000000 0.000000 0.000000 0.000000 0.000000 0.000000 -0.000000 0.000000 0.000000 -0.909327 -7.745333 0.405168 2.290617 8.615705 -0.941890 5.512645 -9.140798 -2.311061 0.000000 0.000000 0.000000 0.000000 0.000000 0.000000 0.113905 -0.238819 21.202197 -0.000000 0.000000 0.000000 0.583100 2.397698 0.834214 0.000000 0.000000 0.000000 0.113905 -0.238819 21.202197 -0.000000 0.000000 0.000000 7.261538 13.225550 -11.523923 0.000000 0.000000 0.000000
13.383899 70.070494 358.686707 -0.049051 0.500352 -19.764412 0.215362 -0.454289 19.765480 -0.000000 0.000000 0.000000 1.746079 1.223894 -0.423669 0.000000 0.000000 0.000000 -1.020305 -2.905604 1.376780 3.356796 5.023038 2.649345 -3.280046 -1.413385 -20.126762 2.819584 -0.266331 23.174339 0.000000 0.000000 0.000000 0.000000 0.000000 0.000000 -0.885381 0.863435 -0.130661 -0.561459 -13.647328 0.724881 3.644421 14.360455 -1.980619 9.576245 -16.027770 -2.760727 0.000000 0.000000 0.000000 0.000000 0.000000 0.000000 1.096266 -1.239539 19.909614 -0.560947 1.038172 -0.126031 0.923081 3.605877 1.059273 0.000000 0.000000 0.000000 0.215362 -0.454289 19.765480 -0.650103 -1.088178 0.040234 16.608212 23.818114 -23.443158 0.000000 0.000000 0.000000
13.615322 70.131646 358.783575 -0.087699 0.708861 -18.564823 0.308836 -0.644049 18.567102 -0.000000 0.000000 0.000000 2.372545 1.680106 -0.591045 0.000000 0.000000 0.000000 -1.554259 -3.878341 1.847134 4.699192 6.762268 3.673153 -4.215870 -1.876153 -26.750499 3.871503 0.031835 31.153005 0.000000 0.000000 0.000000 0.000000 0.000000 0.000000 -1.159258 1.142931 -0.166702 -0.561753 -16.595471 0.835442 4.164897 17.696284 -2.833443 12.384416 -20.734149 -2.018683 0.000000 0.000000 0.000000 0.000000 0.000000 0.000000 1.492780 -1.714232 18.765471 -0.776978 1.393845 -0.164553 1.062910 3.679543 0.703258 0.000000 0.000000 0.000000 0.308836 -0.644049 18.567102 -0.835820 -1.491373 0.060467 24.827256 29.736411 -33.583173 0.000000 0.000000 0.000000
13.802215 70.176330 358.857326 -0.135755 0.888824 -17.618409 0.398444 -0.806033 17.622265 -0.000000 0.000000 0.000000 2.832102 2.033448 -0.723274 0.000000 0.000000 0.000000 -2.119947 -4.565909 2.192796 5.810409 8.011736 4.517797 -4.739853 -2.239863 -31.667834 4.641883 0.438701 37.067468 0.000000 0.000000 0.000000 0.000000 0.000000 0.000000 -1.321685 1.321316 -0.185590 -0.437353 -17.318798 0.854033 3.855376 18.953073 -3.417503 14.097199 -23.586105 -0.455565 0.000000 0.000000 0.000000 0.000000 0.000000 0.000000 1.812642 -2.083689 17.860876 -1.767903 1.890164 -0.371976 1.793522 2.329141 -0.065416 0.000000 0.000000 0.000000 0.334974 0.016009 17.600066 -1.120102 -2.608193 0.090237 31.227759 32.874318 -41.251466 0.000000 0.000000 0.000000
13.944577 70.204545 358.907959 -0.193168 1.039793 -16.936334 0.190493 -0.150174 16.932604 0.054767 -0.840631 0.007055 3.123507 2.284642 -0.817439 0.000000 0.000000 0.000000 -2.726739 -4.985469 2.425176 6.692658 8.787401 5.196840 -4.873057 -2.525609 -35.172828 5.123619 0.853970 41.064846 0.000000 0.000000 0.000000 0.000000 0.000000 0.000000 -1.373283 1.398944 -0.188344 -0.195698 -15.876606 0.788408 2.670676 18.257069 -3.790923 14.769785 -24.858217 1.812974 0.000000 0.000000 0.000000 0.000000 0.000000 0.000000 2.069669 -2.343012 17.205911 -2.154501 2.187151 -0.435025 1.675604 -0.306609 -1.743119 0.000000 0.000000 0.000000 0.491114 -0.053232 16.923521 -1.201773 -2.878243 0.111143 35.670625 34.422747 -46.533649 0.000000 0.000000 0.000000
